<svg xmlns="http://www.w3.org/2000/svg" xmlns:xlink="http://www.w3.org/1999/xlink" fill="none" version="1.1" width="44" height="44" viewBox="0 0 44 44"><defs><linearGradient x1="0.5" y1="0" x2="0.5" y2="1" id="master_svg0_331_7006"><stop offset="0%" stop-color="#05B6F6" stop-opacity="1"/><stop offset="100%" stop-color="#05B6F6" stop-opacity="1"/></linearGradient></defs><g><g></g><g><path d="M22.0319,44L22,44C21.2588,43.9992,20.55,43.6854,20.037599999999998,43.131C19.6359,42.6965,15.9937,38.72,12.37055,33.682C7.47986,26.884,5,21.461,5,17.5703C5,7.8815,12.626629999999999,0,22,0C31.3734,0,39,7.8815,39,17.5692C39,19.9232,38.1234,22.8074,36.3958,26.1393C34.7288,29.3524,32.222300000000004,33.0847,28.9445,37.2339L28.918,37.2669L24.04,43.0419C23.535,43.6455,22.8032,43.9946,22.0319,44ZM22,25.7939C26.3881,25.7939,29.9581,22.1045,29.9581,17.5692C29.9581,13.034,26.3881,9.34446,22,9.34446C17.6119,9.34446,14.04187,13.0338,14.04187,17.5691C14.04187,22.1045,17.6119,25.7939,22,25.7939Z" fill="url(#master_svg0_331_7006)" fill-opacity="1"/></g></g></svg>