<svg xmlns="http://www.w3.org/2000/svg" xmlns:xlink="http://www.w3.org/1999/xlink" fill="none" version="1.1" width="44" height="44" viewBox="0 0 44 44"><g><g></g><g><path d="M14.8846,26.2903C16.733,27.799,19.1652,28.7419,21.6946,28.7419C24.0294,28.6476,26.3643,27.8933,28.31,26.3846C30.1584,27.8933,32.4932,28.6476,34.9253,28.6476C35.8982,28.6476,36.871,28.5533,37.7466,28.2705C38.7195,27.9876,39.595,28.7419,39.595,29.6849L39.595,37.134C39.595,39.2084,37.8439,41,35.6063,41L6.61538,41C4.47511,41,2.6267,39.3027,2.6267,37.134L2.6267,29.4963C2.6267,28.5533,3.59955,27.799,4.5724,28.1762C5.64253,28.5533,6.80995,28.7419,7.97738,28.7419C10.7014,28.6476,13.0362,27.799,14.8846,26.2903ZM34.8281,3C36.2873,3,37.552,3.848635,38.233,5.07444L38.3303,5.2630300000000005L42.1244,14.598C42.319,14.9752,42.4163,15.2581,42.6109,15.6352L42.7081,16.0124C42.9027,16.6725,43,17.4268,43,18.0868C43,22.4243,39.4005,25.9132,34.9253,25.9132C32.1041,25.9132,29.6719,24.5931,28.31,22.6129C26.8507,24.6873,24.4186,26.0074,21.6946,26.0074C18.8733,26.0074,16.3439,24.5931,14.8846,22.4243C13.4253,24.5931,10.9932,26.0074,8.07466,26.0074C3.59955,26.0074,0,22.5186,0,18.1811C0,17.5211,0.0972852,16.861,0.291855,16.201L0.38914,15.9181L0.680996,15.0695L0.778281,14.7866L4.5724,5.2630300000000005C5.05882,3.942928,6.42081,3.0942924,7.7828,3L34.8281,3ZM33.7579,15.1638L9.24208,15.1638C8.4638,15.1638,7.7828,15.8238,7.7828,16.578200000000002C7.7828,17.3325,8.36652,17.8983,9.1448,17.9926L33.7579,17.9926C34.5362,17.9926,35.2172,17.3325,35.2172,16.578200000000002C35.2172,15.8238,34.5362,15.1638,33.7579,15.1638Z" fill="#05B6F6" fill-opacity="1"/></g></g></svg>