<svg xmlns="http://www.w3.org/2000/svg" xmlns:xlink="http://www.w3.org/1999/xlink" fill="none" version="1.1" width="40" height="32" viewBox="0 0 40 32"><defs><linearGradient x1="0.02031249925494194" y1="0.17536011338233948" x2="0.8704589605331421" y2="1" id="master_svg0_331_6570"><stop offset="0%" stop-color="#62AAFF" stop-opacity="1"/><stop offset="99.28571581840515%" stop-color="#0E66CD" stop-opacity="1"/></linearGradient><linearGradient x1="0.02031249925494194" y1="0.17536011338233948" x2="0.8704589605331421" y2="1" id="master_svg1_331_6570"><stop offset="0%" stop-color="#62AAFF" stop-opacity="1"/><stop offset="99.28571581840515%" stop-color="#0E66CD" stop-opacity="1"/></linearGradient></defs><g><g><g><path d="M36.8,8L30.4,8C28.6327,8,27.2,9.43269,27.2,11.2L27.2,20.8C27.2,22.5673,28.6327,24,30.4,24L36.8,24L36.8,28.8C36.8,30.5673,35.3673,32,33.6,32L3.2,32C1.43269,32,0,30.5673,0,28.8L0,3.2C0,1.43269,1.43269,0,3.2,0L33.6,0C35.3673,0,36.8,1.43269,36.8,3.2L36.8,8Z" fill="url(#master_svg0_331_6570)" fill-opacity="1"/></g><g><path d="M30.40000114440918,9.600000381469727L38.40000114440918,9.600000381469727C39.28370114440918,9.600000381469727,40.00000114440918,10.316344381469726,40.00000114440918,11.200000381469726L40.00000114440918,20.800000381469726C40.00000114440918,21.683700381469727,39.28370114440918,22.400000381469727,38.40000114440918,22.400000381469727L30.40000114440918,22.400000381469727C29.51634614440918,22.400000381469727,28.80000114440918,21.683700381469727,28.80000114440918,20.800000381469726L28.80000114440918,11.200000381469726C28.80000114440918,10.316344381469726,29.51634614440918,9.600000381469727,30.40000114440918,9.600000381469727ZM33.60000114440918,17.600000381469727C34.48365114440918,17.600000381469727,35.20000114440918,16.883660381469728,35.20000114440918,16.000000381469725C35.20000114440918,15.116340381469726,34.48365114440918,14.400000381469727,33.60000114440918,14.400000381469727C32.71635114440918,14.400000381469727,32.00000114440918,15.116340381469726,32.00000114440918,16.000000381469725C32.00000114440918,16.883660381469728,32.71635114440918,17.600000381469727,33.60000114440918,17.600000381469727Z" fill="url(#master_svg1_331_6570)" fill-opacity="1"/></g></g></g></svg>