<svg xmlns="http://www.w3.org/2000/svg" xmlns:xlink="http://www.w3.org/1999/xlink" fill="none" version="1.1" width="44" height="44" viewBox="0 0 44 44"><defs><linearGradient x1="0.5" y1="0" x2="0.5" y2="1" id="master_svg0_331_7006"><stop offset="0%" stop-color="#05B6F6" stop-opacity="1"/><stop offset="100%" stop-color="#05B6F6" stop-opacity="1"/></linearGradient></defs><g><g></g><g><path d="M7.634,22.3823L7.634,11.1897C7.4745,11.1897,7.31775,11.1897,7.161,11.2145C9.69925,5.709,15.356,1.8645,21.934,1.8645C28.5092,1.8645,34.166,5.709,36.7015,11.2145C36.5475,11.1897,36.3908,11.1897,36.234,11.1897L36.234,22.4042C39.3965,22.4042,41.9568,19.888,41.9568,16.808C41.9568,14.718,40.766,12.8755,39.039,11.9103C36.5695,4.9665,29.8568,0,21.956,0C14.0305,0,7.315,4.9885,4.8675,11.9075C3.07068,12.8828,1.95197,14.7635,1.9525,16.808C1.90575,19.888,4.46325,22.3823,7.63125,22.3823L7.634,22.3823ZM34.2815,28.809C30.9084,31.8885,26.5014,33.5885,21.934,33.572C17.3666,33.5885,12.9596,31.8885,9.5865,28.809C3.795,31.7515,0,36.9435,0,44L44,44C44,36.9215,40.139,31.7295,34.2788,28.809L34.2815,28.809ZM21.934,5.59625C15.0865,5.59625,9.53975,11.033,9.53975,17.7293C9.53975,24.4283,15.0865,29.865,21.934,29.865C28.7815,29.865,34.3255,24.4283,34.3255,17.7293C34.3008,11.033,28.7568,5.59625,21.934,5.59625ZM22,24.7418C19.9347,24.7418,18.2518,23.5043,18.2518,21.978L25.7483,21.978C25.7483,23.5043,24.0653,24.7418,22,24.7418Z" fill="url(#master_svg0_331_7006)" fill-opacity="1"/></g></g></svg>