<?xml version="1.0" encoding="UTF-8"?>
<svg width="34px" height="34px" viewBox="0 0 34 34" version="1.1" xmlns="http://www.w3.org/2000/svg" xmlns:xlink="http://www.w3.org/1999/xlink">
    <title>画板</title>
    <defs>
        <polygon id="path-1" points="0 0 30 0 30 29 0 29"></polygon>
    </defs>
    <g id="餐饮预订商家版" stroke="none" stroke-width="1" fill="none" fill-rule="evenodd">
        <g id="画板" transform="translate(-697.000000, -992.000000)">
            <g id="编组-2" transform="translate(697.000000, 992.000000)">
                <rect id="矩形" x="0" y="0" width="34" height="34"></rect>
                <g id="编组" transform="translate(2.000000, 3.000000)">
                    <mask id="mask-2" fill="white">
                        <use xlink:href="#path-1"></use>
                    </mask>
                    <g id="Clip-2"></g>
                    <path d="M26.1935484,24.7137686 C26.1935484,26.2541932 25.4209677,27.5936928 24.516129,27.5936928 L18.8387097,27.5936928 L18.8387097,21.8338443 C18.8387097,20.7622446 18.0645161,19.8915698 17.0967742,19.8915698 L12.9032258,19.8915698 C11.9354839,19.8915698 11.1612903,20.7622446 11.1612903,21.8338443 L11.1612903,27.5936928 L5.48387097,27.5936928 C4.58064516,27.5936928 3.80645161,26.2541932 3.80645161,24.7137686 L3.80645161,16.0739958 C4.32258065,16.2749208 4.83870968,16.3418957 5.41935484,16.3418957 C7.48387097,16.3418957 9.29032258,15.0693711 10.1935484,13.1940716 C11.0967742,15.0693711 12.9032258,16.3418957 14.9677419,16.3418957 C17.0322581,16.3418957 18.8387097,15.0693711 19.7419355,13.1940716 C20.6451613,15.0693711 22.4516129,16.3418957 24.516129,16.3418957 C25.0967742,16.3418957 25.6129032,16.2749208 26.1290323,16.0739958 L26.1290323,24.7137686 L26.1935484,24.7137686 Z M12.3870968,27.5936928 L12.3870968,21.8338443 C12.3870968,21.4989694 12.5806452,21.2310695 12.8387097,21.2310695 L17.0322581,21.2310695 C17.2903226,21.2310695 17.483871,21.4989694 17.483871,21.8338443 L17.483871,27.5936928 L12.3870968,27.5936928 Z M1.22580645,10.5150723 L3.5483871,2.21017442 C3.74193548,1.67437456 4.19354839,1.33949965 4.64516129,1.33949965 L25.2258065,1.33949965 C25.7419355,1.33949965 26.1935484,1.74134955 26.3225806,2.27714941 L28.6467742,10.5820472 C28.5806452,13.0601216 26.7741935,15.0693711 24.516129,15.0693711 C22.2580645,15.0693711 20.3870968,12.9931466 20.3870968,10.5150723 L20.3870968,10.4480973 L20.3870968,10.3811223 C20.3225806,10.0462474 20,9.77834745 19.6774194,9.84532243 C19.3548387,9.84532243 19.0967742,10.1801973 19.0967742,10.5150723 C19.0967742,13.0601216 17.2258065,15.0693711 14.9677419,15.0693711 C12.7096774,15.0693711 10.8387097,12.9931466 10.8387097,10.5150723 L10.8387097,10.3141473 C10.7741935,9.9792724 10.4516129,9.77834745 10.1290323,9.84532243 C9.80645161,9.91229742 9.5483871,10.1801973 9.5483871,10.5150723 C9.5483871,13.0601216 7.67741935,15.0693711 5.41935484,15.0693711 C3.09677419,15.0023961 1.29032258,12.9931466 1.22580645,10.5150723 L1.22580645,10.5150723 Z M30,10.4480973 L30,10.1801973 L27.6129032,1.87529951 C27.2903226,0.736724808 26.3225806,0 25.2258065,0 L4.64516129,0 C3.5483871,0 2.64516129,0.736724808 2.32258065,1.87529951 L0,10.2471723 L0,10.4480973 C0,12.5243217 1.03225806,14.3996212 2.58064516,15.471221 C2.58064516,15.5381959 2.51612903,15.6051709 2.51612903,15.6721459 L2.51612903,24.7807435 C2.51612903,27.1231936 3.80645161,29.0001674 5.48387097,29.0001674 L24.5806452,29.0001674 C26.2580645,29.0001674 27.5483871,27.1231936 27.5483871,24.7807435 L27.5483871,15.404246 C28.9677419,14.3996212 29.9354839,12.5912967 30,10.4480973 L30,10.4480973 Z" id="Fill-1" fill="#151515" mask="url(#mask-2)"></path>
                </g>
            </g>
        </g>
    </g>
</svg>