<svg xmlns="http://www.w3.org/2000/svg" xmlns:xlink="http://www.w3.org/1999/xlink" fill="none" version="1.1" width="22.259765625" height="18.7216796875" viewBox="0 0 22.259765625 18.7216796875"><g transform="matrix(0.9520618915557861,-0.305905282497406,0.305905282497406,0.9520618915557861,-1.7804643395356834,0.2790147718042135)"><g><path d="M0.783448,8.485370397567749L5.58487,8.485370397567749C6.01755,8.485370755091749,6.36831,8.791336397567749,6.36831,9.16876539756775L6.36831,16.02224039756775C6.36831,16.39967039756775,6.01755,16.70564039756775,5.58487,16.70564039756775L0.783448,16.70564039756775C0.350762,16.70564039756775,1.02467e-7,16.39967039756775,0,16.02224039756775L0,9.16876539756775C-1.02467e-7,8.791336397567749,0.350762,8.485370755091749,0.783448,8.485370397567749ZM4.80142,9.852160397567749L1.5669,9.852160397567749L1.5669,15.33885039756775L4.80142,15.33885039756775L4.80142,9.852160397567749Z" fill="#262626" fill-opacity="1"/></g><g><path d="M13.4417216015625,19.3709125C13.3446316015625,19.3709125,13.2483816015625,19.3551125,13.1578916015625,19.3244125L5.3010266015625,16.659212500000002C4.8977625015625,16.522312499999998,4.6980286015625,16.1262125,4.8549084015625,15.7744625C5.0117876015625,15.4227025,5.4658746015625,15.2484725,5.8691416015625,15.3853225L12.658721601562501,17.6893125L12.658721601562501,7.5024525L5.8691416015625,9.8064725C5.4658746015625,9.943312500000001,5.0117886015625,9.7690925,4.8549092015625,9.4173325C4.6980296015625,9.0655625,4.8977638015625,8.6694725,5.3010276015625,8.5326225L13.1578916015625,5.867383C13.6710816015625,5.6933905,14.2245016015625,6.0232565000000005,14.2251716015625,6.5035264999999995L14.2251716015625,18.6875125C14.2251716015625,19.0649125,13.8744116015625,19.3709125,13.4417216015625,19.3709125Z" fill="#262626" fill-opacity="1"/></g><g><path d="M17.37016176574707,10.613657418289185L16.49718076574707,10.613657418289185C16.06449276574707,10.613657418289185,15.71373176574707,10.307687418289184,15.71373176574707,9.930262418289185C15.71373176574707,9.552833418289184,16.06449276574707,9.246867418289185,16.49718076574707,9.246867418289185L17.37016176574707,9.246867418289185C17.80285176574707,9.246867418289185,18.15361176574707,9.552833418289184,18.15361176574707,9.930262418289185C18.15361176574707,10.307687418289184,17.80285176574707,10.613657418289185,17.37016176574707,10.613657418289185Z" fill="#2380FF" fill-opacity="1"/></g><g><path d="M18.243149799499513,13.659646693267822L16.060688799499513,13.659646693267822C15.628000799499512,13.659646693267822,15.277239799499512,13.353676693267822,15.277239799499512,12.976251693267823C15.277239799499512,12.598822693267822,15.628000799499512,12.292856693267822,16.060688799499513,12.292856693267822L18.243149799499513,12.292856693267822C18.675839799499514,12.292856693267822,19.02659979949951,12.598822693267822,19.02659979949951,12.976251693267823C19.02659979949951,13.353676693267822,18.675839799499514,13.659646693267822,18.243149799499513,13.659646693267822Z" fill="#2380FF" fill-opacity="1"/></g><g><path d="M17.37015655670166,16.70563906768799L16.49717155670166,16.70563906768799C16.06490855670166,16.70511906768799,15.71480655670166,16.399299067687988,15.71480655670166,16.022243067687988C15.71480655670166,15.645183067687988,16.06490855670166,15.339369622687988,16.49717155670166,15.338849067687988L17.37015655670166,15.338849067687988C17.80241655670166,15.339371052687989,18.15252655670166,15.645184067687989,18.15252655670166,16.022243067687988C18.15252655670166,16.399299067687988,17.80241655670166,16.70511906768799,17.37015655670166,16.70563906768799Z" fill="#2380FF" fill-opacity="1"/></g></g></svg>