<?xml version="1.0" encoding="UTF-8"?>
<svg width="41px" height="41px" viewBox="0 0 41 41" version="1.1" xmlns="http://www.w3.org/2000/svg" xmlns:xlink="http://www.w3.org/1999/xlink">
    <title>编组</title>
    <g id="页面-1" stroke="none" stroke-width="1" fill="none" fill-rule="evenodd">
        <g id="自定义预设-3" transform="translate(-283.000000, -51.000000)" fill="#707070" fill-rule="nonzero">
            <g id="编组" transform="translate(283.000000, 51.000000)">
                <path d="M38.9803056,12.0847421 L22.4739367,18.1669871 C21.416416,18.5556806 20.2562493,18.5625672 19.1941863,18.1864552 L2.05749038,12.0980624 C0.828576541,11.6820518 0.00160013637,10.5292473 0.00160013637,9.23215276 C0.00160013637,7.93505827 0.828576541,6.78225372 2.05749038,6.36624316 L19.1941863,0.277850332 C20.256086,-0.098851184 21.4163431,-0.0923265525 22.4739367,0.296293798 L38.9803056,6.3785388 C40.1901477,6.8056313 40.9991519,7.9489433 40.9991519,9.23164045 C40.9991519,10.5143376 40.1901477,11.6576496 38.9803056,12.0847421 Z M37.9051624,9.16247745 L21.3987935,3.0802324 C21.0235751,2.9431676 20.612388,2.94063235 20.2355071,3.07305996 L3.09881111,9.16145283 C3.08224553,9.16305939 3.06719322,9.17177556 3.05755672,9.18534156 C3.04792022,9.19890756 3.04464855,9.21598736 3.04858994,9.23215278 C3.04462802,9.24820467 3.04791674,9.26518614 3.05758513,9.27859976 C3.06725352,9.29201338 3.08232614,9.30050588 3.09881111,9.30182807 L20.2355071,15.3902209 C20.6122001,15.5237655 21.0237768,15.5212279 21.3987935,15.3830485 L37.9051624,9.30182807 C37.9204358,9.30004047 37.9343529,9.2922004 37.9437939,9.28006534 C37.9532349,9.26793028 37.9574101,9.2525153 37.9553836,9.23727594 C37.961208,9.22054601 37.9585163,9.20205187 37.9489497,9.18734378 C37.9390743,9.17263569 37.9228562,9.16342556 37.9051624,9.16247745 L37.9051624,9.16247745 Z M2.05236576,31.291562 L20.1852858,37.8574357 C20.6033239,38.0082859 21.0613754,38.0057439 21.4777125,37.8502633 L38.9454582,31.2925866 C39.4522366,31.1005842 40.0229798,31.1934545 40.4426942,31.5362142 C40.8624086,31.878974 41.0673298,32.4195497 40.9802658,32.9543118 C40.8932018,33.489074 40.5273798,33.9367794 40.0206014,34.1287818 L22.5528557,40.6864584 C21.9991485,40.8933531 21.4128806,40.9995391 20.8217624,40.9999986 C20.2499659,41.0004244 19.6824978,40.9009024 19.14499,40.7059265 L1.01104498,34.1400528 C0.496602376,33.9581209 0.1195515,33.5139669 0.0236461521,32.9769282 C-0.0722591962,32.4398896 0.127762547,31.8927382 0.547451422,31.5440801 C0.967140297,31.1954221 1.54181109,31.0989948 2.05236576,31.291562 Z" id="形状"></path>
                <path d="M20.8350262,30 C20.2635438,30 19.6964304,29.8985249 19.1590469,29.7003395 L1.03367947,23.0138388 C0.511518148,22.8346034 0.125616964,22.3811066 0.0253750319,21.8289167 C-0.0748669004,21.2767268 0.126286265,20.7125258 0.550959401,20.3547406 C0.975632537,19.9969553 1.55716102,19.9017503 2.07040991,20.1059836 L20.1947529,26.7977049 C20.6128058,26.9505422 21.0704516,26.947583 21.4865682,26.789352 L38.9460515,20.1070278 C39.7290924,19.804576 40.6044377,20.2063625 40.9011899,21.004443 C41.197942,21.8025236 40.803727,22.6946812 40.0206861,22.997133 L22.5612028,29.6794573 C22.0093722,29.8911125 21.4246383,29.9996948 20.8350262,30 L20.8350262,30 Z" id="路径"></path>
            </g>
        </g>
    </g>
</svg>