<?xml version="1.0" encoding="UTF-8"?>
<svg width="76px" height="73px" viewBox="0 0 76 73" version="1.1" xmlns="http://www.w3.org/2000/svg" xmlns:xlink="http://www.w3.org/1999/xlink">
    <title>编组 5备份</title>
    <g id="页面-1" stroke="none" stroke-width="1" fill="none" fill-rule="evenodd">
        <g id="切图" transform="translate(-309.000000, -532.000000)" stroke-width="4">
            <g id="编组-5备份" transform="translate(309.672851, 534.000000)">
                <path d="M66.3841577,39.8653846 C67.1366485,39.8653846 67.8309111,40.1441521 68.3616895,40.6094219 C68.8924679,41.0746917 69.2597622,41.7264637 69.3583164,42.4724728 L69.3583164,42.4724728 L72.3663268,65.2417035 C72.4748264,66.0629948 72.2401603,66.8505126 71.7730465,67.4598326 C71.3059327,68.0691525 70.6063712,68.5002745 69.7850799,68.6087741 L69.7850799,68.6087741 L38.4298937,68.6346154 C37.6014666,68.6346154 36.8514666,68.2988289 36.3085734,67.7559357 C35.7656802,67.2130425 35.4298937,66.4630425 35.4298937,65.6346154 L35.4298937,65.6346154 L38.28584,42.494975 C38.3792832,41.7439556 38.7451394,41.086558 39.2768372,40.6169153 C39.8085351,40.1472725 40.5060747,39.8653846 41.2628849,39.8653846 L41.2628849,39.8653846 Z" id="矩形备份-2" stroke="#05B6F6" fill="#05B6F6"></path>
                <path d="M16.8313,23.2115385 L16.8313,13.4382591 C16.8313,6.01651354 22.8478135,0 30.2695591,0 C37.6913047,0 43.7078182,6.01651354 43.7078182,13.4382591 L43.7078182,23.2115385 L43.7078182,23.2115385" id="路径" stroke="#05B6F6"></path>
                <circle id="椭圆形" stroke="#05B6F6" fill="#F0F6FF" cx="16.8313" cy="27.3076923" r="3.46153846"></circle>
                <circle id="椭圆形备份" stroke="#05B6F6" fill="#F0F6FF" cx="44.1389923" cy="27.3076923" r="3.46153846"></circle>
                <path d="M50.5678502,14.2884615 C51.3345891,14.2884615 52.0396136,14.5775793 52.5733188,15.0572968 C53.1070239,15.5370144 53.4694096,16.2073317 53.5508706,16.9697309 L53.5508706,16.9697309 L58.7556147,65.6812694 C58.8436297,66.5050077 58.5894264,67.286438 58.1072848,67.8839374 C57.6251432,68.4814368 56.9150632,68.8950054 56.0913249,68.9830204 L56.0913249,68.9830204 L5.52840981,69 C4.69998268,69 3.94998268,68.6642136 3.40708947,68.1213203 C2.86419625,67.5784271 2.52840981,66.8284271 2.52840981,66 L2.52840981,66 L7.44539469,16.9880845 C7.52251833,16.221687 7.8836153,15.5467813 8.41799843,15.0634749 C8.95238156,14.5801685 9.66005084,14.2884615 10.4303191,14.2884615 L10.4303191,14.2884615 Z" id="矩形" stroke="#05B6F6"></path>
                <path d="M44.1389923,45.0576923 C44.1389923,50.33626 48.4181169,54.6153846 53.6966846,54.6153846 C58.9752523,54.6153846 63.2543769,50.33626 63.2543769,45.0576923" id="路径" stroke="#DFF6FF" stroke-linecap="round"></path>
            </g>
        </g>
    </g>
</svg>