<?xml version="1.0" encoding="UTF-8"?>
<svg width="71px" height="79px" viewBox="0 0 71 79" version="1.1" xmlns="http://www.w3.org/2000/svg" xmlns:xlink="http://www.w3.org/1999/xlink">
    <title>编组 4备份</title>
    <g id="页面-1" stroke="none" stroke-width="1" fill="none" fill-rule="evenodd">
        <g id="切图" transform="translate(-95.000000, -528.000000)" stroke="#05B6F6" stroke-width="4">
            <g id="sisisiis" transform="translate(97.667779, 528.000000)">
                <path d="M36.3747697,53.4959744 L48.5585999,76.1886167 C48.9549941,76.9341258 49.8806896,77.2171393 50.6261987,76.8207451 C50.8964564,76.6770465 51.117358,76.4555327 51.2603081,76.1848783 L54.9149985,69.2652767 C55.2017991,68.7222632 55.7856784,68.4035596 56.3975301,68.4560544 L64.6613962,69.1650658 C65.5026469,69.2372423 66.2431259,68.6137844 66.3153023,67.7725338 C66.3404925,67.4789294 66.2802921,67.1843013 66.1419468,66.9241116 L53.4653714,43.0829407" id="路径"></path>
                <path d="M29.969278,53.0697758 L17.7622992,76.1886167 C17.365905,76.9341258 16.4402095,77.2171393 15.6947004,76.8207451 C15.4244427,76.6770465 15.2035411,76.4555327 15.060591,76.1848783 L11.4059006,69.2652767 C11.1191,68.7222632 10.5352207,68.4035596 9.923369,68.4560544 L1.65950286,69.1650658 C0.818252202,69.2372423 0.0777732415,68.6137844 0.00559681471,67.7725338 C-0.019593437,67.4789294 0.0406070234,67.1843013 0.178952326,66.9241116 L13.4938027,43.0829407" id="路径备份"></path>
                <circle id="椭圆形" cx="33.3935385" cy="27.8771543" r="25.8771543"></circle>
                <path d="M33.3935385,16.7153579 L36.2552815,22.5138827 C36.8379295,23.6944565 37.9641919,24.512734 39.2670325,24.7020479 L39.2670325,24.7020479 L45.6660845,25.6318845 L41.035687,30.1454066 C40.0929426,31.0643552 39.6627487,32.388356 39.8853004,33.6859323 L39.8853004,33.6859323 L40.978389,40.0591277 L35.254903,37.050113 C34.0896069,36.4374806 32.69747,36.4374806 31.5321739,37.050113 L31.5321739,37.050113 L25.8086879,40.0591277 L26.9017765,33.6859323 C27.1243282,32.388356 26.6941343,31.0643552 25.7513899,30.1454066 L25.7513899,30.1454066 L21.1209924,25.6318845 L27.5200444,24.7020479 C28.822885,24.512734 29.9491474,23.6944565 30.5317954,22.5138827 L30.5317954,22.5138827 L33.3935385,16.7153579 Z" id="星形" fill="#DFF6FF"></path>
            </g>
        </g>
    </g>
</svg>