<?xml version="1.0" encoding="UTF-8"?>
<svg width="32px" height="32px" viewBox="0 0 32 32" version="1.1" xmlns="http://www.w3.org/2000/svg" xmlns:xlink="http://www.w3.org/1999/xlink">
    <title>编组 12备份</title>
    <g id="页面-1" stroke="none" stroke-width="1" fill="none" fill-rule="evenodd">
        <g id="切图" transform="translate(-259.000000, -1356.000000)">
            <g id="编组-12备份" transform="translate(259.000000, 1356.000000)">
                <path d="M29,1 C29.5522847,1 30.0522847,1.22385763 30.4142136,1.58578644 C30.7761424,1.94771525 31,2.44771525 31,3 L31,3 L31,24 C31,24.5522847 30.7761424,25.0522847 30.4142136,25.4142136 C30.0522847,25.7761424 29.5522847,26 29,26 L29,26 L19.5788248,26 L16.0310328,30.3843383 L12.5088527,26 L3,26 C2.44771525,26 1.94771525,25.7761424 1.58578644,25.4142136 C1.22385763,25.0522847 1,24.5522847 1,24 L1,24 L1,3 C1,2.44771525 1.22385763,1.94771525 1.58578644,1.58578644 C1.94771525,1.22385763 2.44771525,1 3,1 L3,1 Z" id="矩形" stroke="#202020" stroke-width="2"></path>
                <circle id="椭圆形" fill="#202020" cx="9" cy="14" r="2"></circle>
                <circle id="椭圆形备份-10" fill="#202020" cx="16" cy="14" r="2"></circle>
                <circle id="椭圆形备份-11" fill="#202020" cx="23" cy="14" r="2"></circle>
            </g>
        </g>
    </g>
</svg>