<svg xmlns="http://www.w3.org/2000/svg" xmlns:xlink="http://www.w3.org/1999/xlink" fill="none" version="1.1" width="17" height="17" viewBox="0 0 17 17"><defs><clipPath id="master_svg0_55_0585"><rect x="0" y="0" width="17" height="17" rx="0"/></clipPath></defs><g clip-path="url(#master_svg0_55_0585)"><g><path d="M11.254984375,0.33984375L11.169984375,0.33984375C10.880984375,0.33984375,10.659984375,0.57784375,10.659984375,0.84984375L10.659984375,2.05684375C10.659984375,2.34584375,10.880984375,2.56684375,11.169984375,2.56684375L11.254984375,2.56684375C11.543984375,2.56684375,11.781984375,2.34584375,11.781984375,2.05684375L11.781984375,0.84984375C11.781984375,0.57784375,11.543984375,0.33984375,11.254984375,0.33984375ZM14.586984375,5.96684375L15.810984375,5.96684375C16.099984375,5.96684375,16.320984375000002,5.72884375,16.320984375000002,5.45684375L16.320984375000002,5.37184375C16.320984375000002,5.08284375,16.082984375000002,4.86184375,15.810984375,4.86184375L14.586984375,4.86184375C14.297984375,4.86184375,14.076984375,5.08284375,14.076984375,5.37184375L14.076984375,5.45684375C14.059984375,5.74584375,14.297984375,5.96684375,14.586984375,5.96684375ZM15.946984375,0.76484375L15.878984375,0.69684375C15.674984375,0.49284375,15.351984375,0.49284375,15.147984375,0.69684375L13.430984375,2.41384375C13.226984375,2.61784375,13.226984375,2.94084375,13.430984375,3.14484375L13.498984375,3.21284375C13.702984375,3.41684375,14.025984375,3.41684375,14.229984375,3.21284375L15.946984375,1.49584375C16.133984375,1.29184375,16.133984375,0.96884375,15.946984375,0.76484375ZM9.571984375,10.93084375L15.079984375,8.89084375C15.657984375,8.66984375,15.827984375,7.92184375,15.385984375,7.49684375L9.095984375,1.29184375C8.653984375,0.86684375,7.922984375,1.0198437500000002,7.701984375,1.59784375L5.593984375,7.03784375C5.542984375,7.15684375,5.474984375,7.25884375,5.389984375,7.34384375L3.995984375,8.73784375C3.655984375,9.07784375,3.655984375,9.60484375,3.995984375,9.94484375L7.225984375,13.15784375L9.316984375,15.23184375C9.520984375,15.43584375,9.843984375,15.43584375,10.047984375,15.23184375L10.115984375,15.16384375C10.319984375,14.95984375,10.319984375,14.63684375,10.115984375,14.43284375L8.041984375,12.34184375L9.265984375,11.11784375C9.350984375,11.04984375,9.452984375,10.98184375,9.571984375,10.93084375ZM6.647984375,7.46284375L8.500984375,2.65184375C8.551984375,2.53284375,8.687984375,2.49884375,8.789984375,2.58384375L14.059984375,7.78584375C14.144984375,7.87084375,14.110984375,8.023843750000001,13.991984375,8.07484375L9.146984375,9.92784375C9.027984375,9.97884375,8.925984375,10.02984375,8.840984375,10.11484375L7.565984375,11.38984375C7.429984375,11.52584375,7.208984375,11.52584375,7.072984375,11.38984375L5.185984375,9.51984375C5.049984375,9.38384375,5.049984375,9.16284375,5.185984375,9.02684375L6.443984375,7.78584375C6.545984375,7.68384375,6.613984375,7.58184375,6.647984375,7.46284375ZM6.749984375,13.65084375L3.519984375,10.43784375C3.196984375,10.11484375,2.652984375,10.11484375,2.329984375,10.43784375L1.088984375,11.67884375C0.748984375,12.01884375,0.748984375,12.54584375,1.088984375,12.88584375L3.723984375,15.50384375C4.046984375,15.82684375,4.590984375,15.82684375,4.913984375,15.50384375L5.729984375,14.68784375C5.865984375,14.55184375,6.086984375,14.55184375,6.222984375,14.68784375L8.058984375,16.52384375C8.262984375,16.72784375,8.585984374999999,16.72784375,8.789984375,16.52384375L8.857984375,16.45584375C9.061984375,16.25184375,9.061984375,15.92884375,8.857984375,15.72484375L6.749984375,13.65084375ZM4.097984374999999,14.24584375L2.312984375,12.47784375C2.176984375,12.34184375,2.176984375,12.12084375,2.312984375,11.98484375L2.618984375,11.67884375C2.7549843750000003,11.54284375,2.975984375,11.54284375,3.111984375,11.67884375L4.896984375,13.44684375C5.032984375,13.58284375,5.032984375,13.80384375,4.896984375,13.93984375L4.590984375,14.24584375C4.454984375,14.38184375,4.233984375,14.38184375,4.097984374999999,14.24584375Z" fill="#535353" fill-opacity="1"/></g></g></svg>