<?xml version="1.0" encoding="UTF-8"?>
<svg width="80px" height="80px" viewBox="0 0 80 80" version="1.1" xmlns="http://www.w3.org/2000/svg" xmlns:xlink="http://www.w3.org/1999/xlink">
    <title>选择提现方式</title>
    <defs>
        <rect id="path-1" x="-1" y="1027" width="751" height="148"></rect>
        <filter x="-0.1%" y="-0.3%" width="100.1%" height="100.7%" filterUnits="objectBoundingBox" id="filter-2">
            <feOffset dx="0" dy="-1" in="SourceAlpha" result="shadowOffsetInner1"></feOffset>
            <feComposite in="shadowOffsetInner1" in2="SourceAlpha" operator="arithmetic" k2="-1" k3="1" result="shadowInnerInner1"></feComposite>
            <feColorMatrix values="0 0 0 0 0.894117647   0 0 0 0 0.894117647   0 0 0 0 0.894117647  0 0 0 1 0" type="matrix" in="shadowInnerInner1"></feColorMatrix>
        </filter>
    </defs>
    <g id="餐饮预订商家版" stroke="none" stroke-width="1" fill="none" fill-rule="evenodd">
        <g id="选择提现方式" transform="translate(-39.000000, -1061.000000)">
            <rect fill="#FAFAFA" x="0" y="0" width="750" height="1544"></rect>
            <rect id="矩形" fill-opacity="0.401414991" fill="#000000" x="0" y="0" width="750" height="1544"></rect>
            <path d="M20,747 L730,747 C741.045695,747 750,755.954305 750,767 L750,1544 L750,1544 L0,1544 L0,767 C-1.3527075e-15,755.954305 8.954305,747 20,747 Z" id="矩形" fill="#FFFFFF"></path>
            <g id="矩形备份-25" fill="black" fill-opacity="1">
                <use filter="url(#filter-2)" xlink:href="#path-1"></use>
            </g>
            <g id="支付宝" transform="translate(39.000000, 1061.000000)" fill="#00ADF4" fill-rule="nonzero">
                <rect id="矩形" opacity="0" x="0" y="0" width="80" height="80"></rect>
                <path d="M18.0289844,45.0435156 C17.0435156,45.7971094 16.0579687,46.8985156 15.7680469,48.3478125 C15.3623437,50.2608594 15.7101562,52.695625 17.5072656,54.60875 C19.768125,56.8695312 23.1884375,57.5071875 24.695625,57.6232031 C28.695625,57.9130469 32.9854687,55.8840625 36.231875,53.6811719 C37.5072656,52.8116406 39.6521875,51.0145312 41.7391406,48.2319531 C37.1014844,45.8550781 31.304375,43.1884375 25.1594531,43.4202344 C21.9130469,43.53625 19.6521875,44.1739063 18.0289844,45.0435156 Z M76.8115625,55.6521094 C78.840625,50.840625 80,45.5653125 80,40 C80,17.9710156 62.0289844,0 40,0 C17.9710156,0 0,17.9710156 0,40 C0,62.0289844 17.9710156,80 40,80 C53.3333594,80 65.1014844,73.4492188 72.4057813,63.4203125 C65.5072656,60.0579688 54.2028906,54.3767969 47.1884375,51.0145312 C43.8840625,54.8405469 38.9564844,58.6086719 33.3913281,60.231875 C29.9130469,61.2753906 26.7246094,61.6810937 23.4782812,60.9854687 C20.1739062,60.2898437 17.7970312,58.7825781 16.4057812,57.2753125 C15.7101562,56.46375 14.8985156,55.53625 14.2608594,54.3188281 C14.3188281,54.3767969 14.3188281,54.4927344 14.3188281,54.5507031 C14.3188281,54.5507031 13.9710156,53.9710156 13.7391406,53.0435156 C13.6232031,52.5796875 13.5072656,52.1159375 13.4492969,51.6521094 C13.3913281,51.304375 13.3913281,50.9564844 13.4492969,50.6666406 C13.3913281,50.0869531 13.4492969,49.4492969 13.5652344,48.8115625 C13.9130469,47.1884375 14.5507031,45.39125 16.3478125,43.7101562 C20.1739062,39.9420312 25.3333594,39.768125 28,39.768125 C31.9420312,39.8260937 38.7825781,41.5071875 44.5796875,43.5942187 C46.2028906,40.1739063 47.2464062,36.5796875 47.8840625,34.0869531 L23.8260937,34.0869531 L23.8260937,31.4782812 L36.1739062,31.4782812 L36.1739062,26.2608594 L21.2753906,26.2608594 L21.2753906,23.5942187 L36.1739062,23.5942187 L36.1739062,18.3767969 C36.1739062,17.6811719 36.3478125,17.1014844 37.4492969,17.1014844 L43.304375,17.1014844 L43.304375,23.5942187 L59.4782812,23.5942187 L59.4782812,26.2028906 L43.304375,26.2028906 L43.304375,31.4203125 L56.231875,31.4203125 C56.231875,31.4203125 54.8985156,38.6666406 50.8985156,45.7971094 C59.8840625,48.9854688 72.5797656,53.9710156 76.8115625,55.6521875 L76.8115625,55.6521094 Z" id="形状"></path>
            </g>
        </g>
    </g>
</svg>