<?xml version="1.0" standalone="no"?><!DOCTYPE svg PUBLIC "-//W3C//DTD SVG 1.1//EN" "http://www.w3.org/Graphics/SVG/1.1/DTD/svg11.dtd"><svg t="1721698537161" class="icon" viewBox="0 0 1024 1024" version="1.1" xmlns="http://www.w3.org/2000/svg" p-id="5029" xmlns:xlink="http://www.w3.org/1999/xlink" width="256" height="256"><path d="M588.8 945.92c-123.52-32-128-177.19808-128-177.19808v-117.1968s3.20512-16.27648 12.40064-23.168C483.50208 620.63616 500.48 619.52 500.48 619.52H655.36V117.76c0-36.7616-29.7984-66.56-66.56-66.56H117.76c-36.7616 0-66.56 29.7984-66.56 66.56v788.48c0 36.7616 29.7984 66.56 66.56 66.56h471.04v-26.88z m-168.96-31.16544A11.96544 11.96544 0 0 1 407.87456 926.72H298.68544A11.96544 11.96544 0 0 1 286.72 914.75456v-1.66912A11.96544 11.96544 0 0 1 298.68544 901.12h109.18912A11.96544 11.96544 0 0 1 419.84 913.08544v1.66912z" fill="#fa3534" p-id="5030"></path><path d="M939.61216 665.6h-393.05728c-18.20672 0-34.55488 16.39424-34.55488 34.62656v59.86816c0 69.67296 46.08 128.55808 112.64 146.65216v33.39776c0 18.2784 14.34624 32.65536 32.50688 32.65536h171.87328c18.20672 0 36.25984-14.42816 36.25984-32.65536v-33.39776c61.44-18.04288 107.52-76.928 107.52-146.60608v-59.91424c0-18.2784-14.98624-34.62656-33.18784-34.62656z m-302.39232 184.66816C556.25728 829.75232 562.03776 752.64 562.03776 752.64h35.21024c-6.93248 61.44 55.5008 70.48704 55.5008 70.48704l-15.52896 27.14112z" fill="#fa3534" p-id="5031"></path></svg>