<?xml version="1.0" encoding="UTF-8"?>
<svg width="30px" height="30px" viewBox="0 0 30 30" version="1.1" xmlns="http://www.w3.org/2000/svg" xmlns:xlink="http://www.w3.org/1999/xlink">
    <title>time-circle-filled备份</title>
    <g id="餐饮预订商家版" stroke="none" stroke-width="1" fill="none" fill-rule="evenodd">
        <g id="time-circle-filled备份" fill="#93DBFF" fill-rule="nonzero">
            <rect id="矩形" opacity="0" x="0" y="0" width="30" height="30"></rect>
            <path d="M15,1.875 C7.75195313,1.875 1.875,7.75195313 1.875,15 C1.875,22.2480469 7.75195313,28.125 15,28.125 C22.2480469,28.125 28.125,22.2480469 28.125,15 C28.125,7.75195313 22.2480469,1.875 15,1.875 Z M20.1708984,19.0341797 L19.3330078,20.1767578 C19.2568359,20.2822266 19.1103516,20.3027344 19.0048828,20.2265625 L14.1591797,16.6933594 C14.0976562,16.6494141 14.0625,16.5791016 14.0625,16.5029297 L14.0625,8.4375 C14.0625,8.30859375 14.1679688,8.203125 14.296875,8.203125 L15.7060547,8.203125 C15.8349609,8.203125 15.9404297,8.30859375 15.9404297,8.4375 L15.9404297,15.6884766 L20.1181641,18.7089844 C20.2236328,18.7822266 20.2470703,18.9287109 20.1708984,19.0341797 Z" id="形状"></path>
        </g>
    </g>
</svg>