<?xml version="1.0" encoding="UTF-8"?>
<svg width="50px" height="50px" viewBox="0 0 50 50" version="1.1" xmlns="http://www.w3.org/2000/svg" xmlns:xlink="http://www.w3.org/1999/xlink">
    <title>我的</title>
    <g id="餐饮预订商家版" stroke="none" stroke-width="1" fill="none" fill-rule="evenodd">
        <g id="我的" transform="translate(-65.000000, -506.000000)">
            <rect fill="#FAFAFA" x="0" y="0" width="750" height="1432"></rect>
            <rect id="矩形" fill="#FFFFFF" x="25" y="476" width="700" height="330" rx="10"></rect>
            <rect id="矩形" x="25" y="476" width="700" height="110"></rect>
            <g id="店铺-面" transform="translate(65.000000, 506.000000)" fill="#FF784D" fill-rule="nonzero">
                <rect id="矩形" opacity="0" x="0" y="0" width="50" height="50"></rect>
                <path d="M30.9779,32 C29.89835,34.29095 27.57545,35.88035 24.875,35.88035 C22.17455,35.88035 19.85165,34.29095 18.7721,32 C17.1476,34.34315 14.4422,35.88035 11.375,35.88035 C10.1807,35.88035 9.0431,35.64275 8,35.2202 L8,44.88035 C8,46.1228 9.00755,47.13035 10.25,47.13035 L39.5,47.13035 C40.74245,47.13035 41.75,46.1228 41.75,44.88035 L41.75,35.2202 C40.7069,35.64275 39.5693,35.88035 38.375,35.88035 C35.3078,35.88035 32.6024,34.34315 30.9779,32 Z" id="路径"></path>
                <path d="M42.80115,3.7312 C42.5505,2.7136 41.65095,2 40.6182,2 L10.3818,2 C9.3495,2 8.4495,2.7136 8.19885,3.7312 L3,24.8571429 C3,29.9067429 7.0293,34 12,34 C15.0672,34 17.7726,32.4384 19.3971,30.0580571 C20.47665,32.3853714 22.79955,34 25.5,34 C28.20045,34 30.52335,32.3853714 31.6029,30.0580571 C33.2274,32.4384 35.9328,34 39,34 C43.9707,34 48,29.9067429 48,24.8571429 L42.80115,3.7312 Z M37,19 L14,19 L14,18 L37,18 L37,19 Z" id="形状"></path>
            </g>
        </g>
    </g>
</svg>