<?xml version="1.0" encoding="UTF-8"?>
<svg width="50px" height="50px" viewBox="0 0 50 50" version="1.1" xmlns="http://www.w3.org/2000/svg" xmlns:xlink="http://www.w3.org/1999/xlink">
    <title>我的</title>
    <g id="餐饮预订商家版" stroke="none" stroke-width="1" fill="none" fill-rule="evenodd">
        <g id="我的" transform="translate(-65.000000, -618.000000)">
            <rect fill="#FAFAFA" x="0" y="0" width="750" height="1432"></rect>
            <rect id="矩形" fill="#FFFFFF" x="25" y="476" width="700" height="330" rx="10"></rect>
            <rect id="矩形备份-3" x="25" y="586" width="700" height="110"></rect>
            <g id="认证" transform="translate(65.000000, 618.000000)" fill="#448AFE" fill-rule="nonzero">
                <rect id="矩形" opacity="0" x="0" y="0" width="50" height="50"></rect>
                <path d="M47.463006,22.1237831 L42.9276554,17.6743293 L42.9276554,12.0624056 C42.921929,10.0638736 43.5174801,6.45620835 41.530401,6.4504819 L30.3523652,6.4504819 L27.5578563,2.24726558 C26.1491489,0.838558205 23.6180568,0.489244587 22.2093494,1.89795196 L19.1743294,6.45620835 L10.7850761,6.45620835 C8.79227058,6.46193481 6.49596303,8.03098286 6.49023658,10.0295149 L6.49023658,17.3765538 L2.05223569,22.1295095 C0.649254769,23.5439434 0.649254769,25.8345245 2.05223569,27.2489583 L6.49023658,32.0649051 L6.49023658,39.4119439 C6.49596303,41.410476 7.39501611,42.9222595 9.38782167,42.9279859 L17.7713485,42.9279859 L22.2036229,47.4747894 C23.6123303,48.8834968 25.897185,48.8834968 27.3058923,47.4747894 L31.7438932,42.9279859 L38.7301656,42.9279859 C40.7229711,42.9222595 42.9162025,40.7175752 42.921929,38.7190432 L42.921929,31.7041385 L47.4572796,27.2489583 C48.8659869,25.828798 48.8659869,23.5439434 47.463006,22.1237831 L47.463006,22.1237831 Z M24.7919796,35.7355613 L11.9819048,17.3708273 L21.1327763,17.3708273 L24.7576209,28.3083521 L28.4511829,17.3708273 L37.6020544,17.3708273 L24.7919796,35.7355613 Z" id="形状"></path>
            </g>
        </g>
    </g>
</svg>