<?xml version="1.0" encoding="UTF-8"?>
<svg width="50px" height="50px" viewBox="0 0 50 50" version="1.1" xmlns="http://www.w3.org/2000/svg" xmlns:xlink="http://www.w3.org/1999/xlink">
    <title>  </title>
    <g id="餐饮预订商家版" stroke="none" stroke-width="1" fill="none" fill-rule="evenodd">
        <g id="我的" transform="translate(-65.000000, -876.000000)">
            <rect fill="#FAFAFA" x="0" y="0" width="750" height="1432"></rect>
            <rect id="矩形备份-5" fill="#FFFFFF" x="25" y="846" width="700" height="330" rx="10"></rect>
            <rect id="矩形备份-7" x="25" y="846" width="700" height="110"></rect>
            <g id="关于我们" transform="translate(65.000000, 876.000000)" fill="#FF973D" fill-rule="nonzero">
                <rect id="矩形" opacity="0" x="0" y="0" width="50" height="50"></rect>
                <path d="M24.9375,47.875 C12.2698833,47.875 2,37.6051167 2,24.9375 C2,12.2698833 12.2698833,2 24.9375,2 C37.6051167,2 47.875,12.2698833 47.875,24.9375 C47.875,37.6051167 37.6051167,47.875 24.9375,47.875 Z M22.1146583,23.4083333 L22.1146583,34.7012292 C22.1146583,36.1301831 23.2730544,37.2885792 24.7020083,37.2885792 C26.1309623,37.2885792 27.2893583,36.1301831 27.2893583,34.7012292 L27.2893583,23.4083333 C27.2893583,21.9793794 26.1309623,20.8209833 24.7020083,20.8209833 C23.2730544,20.8209833 22.1146583,21.9793794 22.1146583,23.4083333 Z M24.6836583,12.5864208 C23.9802417,12.5864208 23.3823375,12.8035625 22.8884167,13.3097167 C22.3608542,13.7807 22.1146583,14.395425 22.1146583,15.15695 C22.1146583,15.8802458 22.3608542,16.4949708 22.8884167,17.0026542 C23.3823375,17.5088083 23.9802417,17.7626532 24.6851875,17.7626532 C25.3759702,17.7637003 26.0418944,17.5049724 26.5507708,17.037825 C27.0431625,16.5316708 27.2893583,15.9169458 27.2893583,15.15695 C27.2893583,14.3969542 27.0446917,13.7807 26.5507708,13.3097167 C26.0583792,12.8050917 25.423775,12.5864208 24.6851875,12.5864208 L24.6836583,12.5864208 Z" id="形状"></path>
            </g>
        </g>
    </g>
</svg>