<?xml version="1.0" encoding="UTF-8"?>
<svg width="50px" height="50px" viewBox="0 0 50 50" version="1.1" xmlns="http://www.w3.org/2000/svg" xmlns:xlink="http://www.w3.org/1999/xlink">
    <title>我的</title>
    <g id="餐饮预订商家版" stroke="none" stroke-width="1" fill="none" fill-rule="evenodd">
        <g id="我的" transform="translate(-65.000000, -1096.000000)">
            <rect fill="#FAFAFA" x="0" y="0" width="750" height="1432"></rect>
            <rect id="矩形备份-5" fill="#FFFFFF" x="25" y="846" width="700" height="330" rx="10"></rect>
            <rect id="矩形备份-5" x="25" y="1066" width="700" height="110"></rect>
            <g id="205设置" transform="translate(65.000000, 1096.000000)" fill-rule="nonzero">
                <rect id="矩形" fill="#000000" opacity="0" x="0" y="0" width="50" height="50"></rect>
                <path d="M45.8984375,29.1015625 L42.1875,26.2890625 C42.2265625,25.8984375 42.265625,25.46875 42.265625,25 C42.265625,24.53125 42.2265625,24.1015625 42.1875,23.7109375 L45.8984375,20.8984375 C46.9140625,20.1171875 47.1875,18.75 46.5234375,17.578125 L42.3828125,10.5859375 C41.9140625,9.765625 41.015625,9.2578125 40.078125,9.2578125 C39.765625,9.2578125 39.4921875,9.296875 39.1796875,9.4140625 L34.765625,11.1328125 C34.0234375,10.625 33.2421875,10.1953125 32.4609375,9.84375 L31.796875,5.3515625 C31.6015625,4.0625 30.5078125,3.125 29.1796875,3.125 L20.8203125,3.125 C19.4921875,3.125 18.3984375,4.0625 18.203125,5.3125 L17.578125,9.84375 C16.796875,10.1953125 16.0546875,10.625 15.2734375,11.1328125 L10.859375,9.4140625 C10.546875,9.296875 10.234375,9.2578125 9.921875,9.2578125 C8.984375,9.2578125 8.0859375,9.7265625 7.65625,10.546875 L3.4765625,17.578125 C2.8125,18.671875 3.0859375,20.1171875 4.1015625,20.8984375 L7.8125,23.7109375 C7.7734375,24.1796875 7.734375,24.609375 7.734375,25 C7.734375,25.390625 7.734375,25.8203125 7.8125,26.2890625 L4.1015625,29.1015625 C3.0859375,29.8828125 2.8125,31.25 3.4765625,32.421875 L7.6171875,39.4140625 C8.0859375,40.234375 8.984375,40.7421875 9.921875,40.7421875 C10.234375,40.7421875 10.5078125,40.703125 10.8203125,40.5859375 L15.234375,38.8671875 C15.9765625,39.375 16.7578125,39.8046875 17.5390625,40.15625 L18.203125,44.6484375 C18.359375,45.8984375 19.4921875,46.875 20.8203125,46.875 L29.1796875,46.875 C30.5078125,46.875 31.6015625,45.9375 31.796875,44.6875 L32.4609375,40.15625 C33.2421875,39.8046875 33.984375,39.375 34.765625,38.8671875 L39.1796875,40.5859375 C39.4921875,40.703125 39.8046875,40.7421875 40.1171875,40.7421875 C41.0546875,40.7421875 41.953125,40.2734375 42.3828125,39.453125 L46.5625,32.3828125 C47.1875,31.25 46.9140625,29.8828125 45.8984375,29.1015625 Z M34.375,25 C34.375,30.15625 30.15625,34.375 25,34.375 C19.84375,34.375 15.625,30.15625 15.625,25 C15.625,19.84375 19.84375,15.625 25,15.625 C30.15625,15.625 34.375,19.84375 34.375,25 Z" id="形状" fill="#00ABFF"></path>
            </g>
        </g>
    </g>
</svg>