<?xml version="1.0" encoding="UTF-8"?>
<svg width="40px" height="40px" viewBox="0 0 40 40" version="1.1" xmlns="http://www.w3.org/2000/svg" xmlns:xlink="http://www.w3.org/1999/xlink">
    <title>微信</title>
    <g id="最终版" stroke="none" stroke-width="1" fill="none" fill-rule="evenodd">
        <g id="微信" fill-rule="nonzero">
            <rect id="矩形" fill="#000000" opacity="0" x="0" y="0" width="40" height="40"></rect>
            <path d="M19.4944141,13.5919922 C20.5761328,13.5919922 21.2816016,12.8630078 21.2816016,11.8048047 C21.2816016,10.7466016 20.5526172,10.0176172 19.4944141,10.0176172 C18.4597266,10.0176172 17.3544922,10.6995703 17.3544922,11.8048047 C17.3544922,12.8865234 18.4597266,13.5919922 19.4944141,13.5919922 L19.4944141,13.5919922 Z M11.7107422,11.7812891 C11.7107422,10.7230859 10.9817578,9.99410156 9.92359375,9.99410156 C8.88890625,9.99410156 7.78367187,10.6760547 7.78367187,11.7812891 C7.78367187,12.8865234 8.88890625,13.5684766 9.92359375,13.5684766 C11.0052734,13.5919922 11.7107422,12.8630078 11.7107422,11.7812891 L11.7107422,11.7812891 Z M40,24.4326953 C40,21.7989453 38.8242188,19.2592578 36.7078125,17.2839453 C34.6149219,15.3321484 31.8165625,14.1328516 28.8536328,13.8741797 L28.8536328,13.7330859 C27.6073047,7.94828125 21.3991797,3.574375 14.3915234,3.574375 C6.44328125,3.574375 0,9.10054687 0,15.8964844 C0,19.5179687 1.83421875,22.8101562 5.33804687,25.3733203 L4.13875,28.9947266 C4.0446875,29.2769141 4.13875,29.5591016 4.35039063,29.7472266 C4.56203125,29.9353516 4.89125,29.9588672 5.12640625,29.8412891 L9.6884375,27.5602734 L10.2292578,27.6778516 L10.2527734,27.6778516 C11.6637109,27.9600391 12.8865234,28.2187109 14.3915234,28.2187109 C14.6737109,28.2187109 15.7554297,28.1246484 16.1081641,27.9600391 C17.8483203,32.1928516 22.5044141,35.0382031 27.7248828,35.0382031 C29.0417578,35.0382031 30.3821094,34.7325 31.7225391,34.4032812 L35.2263281,36.3080469 C35.3203906,36.3550781 35.4379688,36.4021094 35.5555469,36.4021094 C35.7201563,36.4021094 35.8847656,36.3550781 36.0023438,36.2375 C36.2375,36.049375 36.3080469,35.7671875 36.2375,35.485 L35.3439063,32.5455469 C38.3303906,30.1704687 40,27.278125 40,24.4326562 L40,24.4326953 Z M33.7683594,31.3932812 C33.5332031,31.5578906 33.4391406,31.8635937 33.5332031,32.1222656 L34.0270313,33.791875 L31.910625,32.6396094 C31.8165625,32.5925781 31.6989844,32.5455469 31.5814063,32.5455469 C31.534375,32.5455469 31.4638281,32.5455469 31.4167969,32.5690625 C30.1939844,32.8747656 28.9241797,33.2039844 27.6778516,33.2039844 C21.9635547,33.2039844 17.3074609,29.2769141 17.3074609,24.4562109 C17.3074609,19.6355078 21.9635547,15.7083984 27.6778516,15.7083984 C33.2980469,15.7083984 38.0247266,19.7060547 38.0247266,24.4562109 C38.0482031,26.8548047 36.5432031,29.3239453 33.7683594,31.3933203 L33.7683594,31.3932812 Z M7.10171875,25.0205859 C7.19578125,24.7383984 7.10171875,24.4326953 6.84304687,24.2445703 C3.55085937,21.9400391 1.88125,19.1416797 1.88125,15.9200391 C1.88125,10.1116797 7.47796875,5.38507813 14.3680078,5.38507813 C20.3880078,5.38507813 25.7730859,9.05351563 26.9488672,13.9212109 C20.5291016,14.0623047 15.3321484,18.6243359 15.3321484,24.1505078 C15.3321484,24.8794922 15.4262109,25.6319922 15.6378516,26.3844922 L15.5437891,26.3844922 C15.1675391,26.4080078 14.7677734,26.4315234 14.3680078,26.4315234 C13.0276172,26.4315234 11.8753516,26.1963672 10.6290234,25.9376953 L9.8765625,25.7966016 C9.73546875,25.7730859 9.57085938,25.7966016 9.42976563,25.8436328 L6.3021875,27.4191797 L7.10171875,25.0205859 L7.10171875,25.0205859 Z M23.9388281,19.9176953 C23.2098828,19.9176953 22.4808984,20.6466797 22.4808984,21.3756641 C22.4808984,22.1046484 23.2098828,22.8336328 23.9388672,22.8336328 C25.0441016,22.8336328 25.7260547,22.0811328 25.7260547,21.3756641 C25.7260547,20.6701953 25.0441016,19.9176953 23.9388672,19.9176953 L23.9388281,19.9176953 Z M31.4403125,19.9176953 C30.7113281,19.9176953 30.0058984,20.6466797 30.0058984,21.3756641 C30.0058984,22.1046484 30.7113672,22.8336328 31.4403125,22.8336328 C32.5455469,22.8336328 33.2275,22.0811328 33.2275,21.3756641 C33.2275,20.6701953 32.5455469,19.9176953 31.4403125,19.9176953 L31.4403125,19.9176953 Z" id="形状" fill="#FFFFFF"></path>
        </g>
    </g>
</svg>