<?xml version="1.0" encoding="UTF-8"?>
<svg width="40px" height="40px" viewBox="0 0 40 40" version="1.1" xmlns="http://www.w3.org/2000/svg" xmlns:xlink="http://www.w3.org/1999/xlink">
    <title>支付,支付宝</title>
    <g id="最终版" stroke="none" stroke-width="1" fill="none" fill-rule="evenodd">
        <g id="支付,支付宝" fill="#FFFFFF" fill-rule="nonzero">
            <rect id="矩形" opacity="0" x="0" y="0" width="40" height="40"></rect>
            <path d="M25.5390625,24.0429688 C28.28125,19.1445312 29.2773438,14.4882812 29.2773438,14.4882812 L20.0546875,14.4882812 L20.0546875,11.0585937 L31.0234375,11.0585937 L31.0234375,9.58984375 L20.0546875,9.58984375 L20.0546875,4.4453125 L15.0703125,4.4453125 L15.0703125,9.58984375 L5.09765625,9.58984375 L5.09765625,11.0585938 L15.0703125,11.0585938 L15.0703125,14.4882813 L6.59375,14.4882813 L6.59375,15.9570313 L23.796875,15.9570313 C23.796875,16.203125 23.796875,16.203125 23.546875,16.4453125 C23.546875,18.1601562 22.3007813,20.609375 21.3046875,22.5703125 C8.58984375,17.671875 4.8515625,20.609375 3.8515625,21.1015625 C-4.625,26.9804688 3.3515625,34.328125 4.59765625,34.0859375 C13.5742188,36.046875 19.3046875,32.3710938 23.296875,27.7148438 C23.546875,27.9609375 23.796875,27.9609375 24.0429688,27.9609375 C26.7851563,29.4296875 40,35.5546875 40,35.5546875 L40,28.2070313 C38.0039062,28.2070313 30.7773438,25.7578125 25.5390625,24.0429688 Z M19.0585938,26.2460938 C12.8242188,34.0859375 5.34765625,31.6367188 4.1015625,31.1445312 C1.109375,30.4101562 0.11328125,25.0234375 3.8515625,23.3085937 C10.0859375,21.3476562 15.5703125,23.5546875 19.5585938,25.5117188 C19.3085938,26 19.0585938,26.2460937 19.0585938,26.2460937 L19.0585938,26.2460938 Z" id="形状"></path>
        </g>
    </g>
</svg>